<?xml version="1.0" standalone="no"?>
<!DOCTYPE svg PUBLIC "-//W3C//DTD SVG 20010904//EN"
 "http://www.w3.org/TR/2001/REC-SVG-20010904/DTD/svg10.dtd">
<svg version="1.0" xmlns="http://www.w3.org/2000/svg"
 width="224.000000pt" height="224.000000pt" viewBox="0 0 224.000000 224.000000"
 preserveAspectRatio="xMidYMid meet">
<metadata>
Created by potrace 1.11, written by Peter Selinger 2001-2013
</metadata>
<g transform="translate(0.000000,224.000000) scale(0.100000,-0.100000)"
fill="#000000" stroke="none">
<path d="M843 2192 c-211 -50 -401 -180 -586 -401 -39 -47 -75 -87 -79 -89 -5
-2 -8 -9 -8 -15 0 -7 -23 -48 -52 -92 -29 -44 -53 -91 -55 -105 -1 -14 -12
-61 -24 -105 -16 -59 -22 -112 -23 -205 -2 -148 5 -206 39 -325 77 -265 212
-468 412 -618 58 -43 112 -80 122 -82 9 -2 32 -12 51 -22 35 -19 119 -47 235
-78 33 -9 67 -20 75 -24 9 -5 87 -7 175 -6 170 3 240 15 395 70 93 33 251 117
299 159 57 49 162 156 215 219 73 87 162 285 180 402 4 21 9 42 12 47 12 19 3
315 -12 398 -16 86 -59 200 -117 313 -17 34 -30 68 -29 75 2 6 -1 12 -7 12 -5
0 -39 40 -76 89 -86 114 -194 195 -375 285 -125 61 -211 92 -285 102 -16 2
-60 9 -96 14 -102 17 -274 9 -386 -18z m417 -13 c30 -6 66 -12 80 -15 84 -16
272 -86 278 -103 2 -7 -4 -9 -15 -5 -16 5 -16 4 1 -10 11 -9 27 -16 35 -17 42
-2 84 -19 48 -19 -30 0 -18 -20 13 -21 17 -1 34 -2 39 -3 5 0 28 -18 52 -40
24 -21 50 -41 59 -45 21 -8 90 -85 90 -99 0 -7 11 -19 26 -28 14 -10 23 -23
20 -31 -3 -7 3 -19 14 -25 11 -7 20 -20 20 -30 0 -9 11 -25 25 -36 17 -14 25
-30 25 -51 0 -25 4 -31 21 -31 17 0 20 -4 15 -24 -4 -18 -1 -28 11 -34 25 -15
75 -166 88 -270 6 -49 5 -54 -14 -59 -27 -7 -27 -23 0 -23 20 0 21 -3 15 -121
-2 -67 -7 -124 -10 -127 -3 -2 -12 1 -21 8 -14 11 -15 7 -9 -43 8 -71 -2 -127
-23 -127 -11 0 -14 -7 -10 -25 3 -18 -2 -30 -15 -39 -11 -8 -16 -20 -12 -29 3
-9 -3 -24 -15 -36 -22 -22 -41 -27 -41 -11 0 6 -4 10 -9 10 -14 0 -20 -39 -7
-43 7 -3 6 -13 -6 -34 -14 -23 -15 -33 -5 -43 10 -10 9 -12 -4 -7 -22 7 -58
-27 -66 -63 -3 -19 -10 -27 -20 -23 -7 3 -13 2 -12 -3 4 -24 -3 -34 -26 -34
-18 0 -26 -7 -31 -25 -8 -34 -33 -53 -44 -35 -11 18 -25 5 -25 -23 0 -17 -5
-21 -23 -20 -13 2 -21 -1 -17 -6 3 -6 -10 -17 -29 -26 -19 -9 -37 -23 -40 -31
-3 -8 -12 -14 -20 -14 -8 0 -17 -6 -19 -12 -4 -10 -7 -10 -15 0 -8 11 -11 11
-23 0 -31 -29 -67 -47 -88 -41 -15 4 -21 1 -21 -11 0 -10 -9 -16 -22 -16 -24
0 -84 -19 -107 -34 -8 -5 -16 -4 -21 5 -11 16 -4 29 15 29 16 0 69 49 61 57
-2 2 -14 0 -25 -7 -12 -6 -38 -13 -58 -15 -21 -3 -56 -10 -78 -16 -38 -11 -43
-10 -69 15 -37 33 -45 33 -59 -4 -15 -39 -50 -40 -136 -5 -34 14 -66 23 -70
20 -5 -2 -20 5 -35 16 -20 16 -26 17 -26 6 0 -9 -5 -17 -11 -19 -5 -2 -7 -11
-4 -21 5 -11 14 -15 29 -12 12 3 43 -5 71 -18 28 -13 67 -30 88 -36 20 -7 35
-17 32 -22 -9 -14 -26 -11 -47 8 -15 14 -21 15 -27 4 -7 -11 -15 -11 -45 0
-20 7 -36 17 -36 21 0 4 -18 8 -40 8 -37 0 -52 4 -127 37 -38 16 -44 27 -10
18 21 -6 21 -6 3 9 -11 9 -26 16 -34 16 -8 0 -21 8 -29 18 -13 15 -14 15 -10
-11 5 -33 -9 -46 -18 -16 -4 12 -12 18 -21 15 -8 -3 -14 1 -14 9 0 8 -6 15
-12 15 -7 0 -26 7 -41 15 -15 8 -25 10 -22 5 4 -6 2 -10 -3 -10 -6 0 -13 12
-16 26 -5 18 -12 24 -24 20 -10 -3 -31 6 -50 22 l-33 27 30 0 c16 0 33 -3 37
-7 16 -16 26 -7 11 10 -11 12 -13 22 -6 33 6 12 4 21 -6 29 -12 10 -15 9 -15
-9 0 -11 -6 -22 -12 -22 -59 -6 -72 -3 -108 28 -22 19 -41 46 -45 64 -4 17
-20 43 -37 59 -18 18 -25 31 -18 35 6 4 17 2 24 -4 15 -12 26 -5 26 17 0 9 -3
13 -6 9 -4 -3 -20 1 -36 9 -16 8 -33 12 -38 9 -6 -3 -10 3 -10 14 0 11 -13 33
-29 48 -24 24 -62 101 -62 125 1 5 -9 33 -20 63 -11 31 -18 63 -15 72 4 9 -1
24 -11 35 -10 11 -18 38 -19 68 -2 27 -7 57 -12 67 -6 11 -7 36 -2 64 5 26 7
59 6 75 -2 16 1 37 6 48 7 12 7 26 0 40 -12 28 35 192 62 211 10 8 15 18 12
24 -4 5 2 15 12 20 12 6 22 26 26 50 4 28 18 52 41 76 20 19 33 35 29 35 -3 0
2 12 11 28 30 46 96 122 107 122 5 0 6 -4 3 -10 -3 -5 -1 -10 4 -10 6 0 11 11
11 24 0 39 158 176 202 176 10 0 18 7 18 15 0 19 158 99 238 120 121 31 309
37 432 14z m800 -1633 c0 -3 -4 -8 -10 -11 -5 -3 -10 -1 -10 4 0 6 5 11 10 11
6 0 10 -2 10 -4z m-740 -476 c0 -5 -7 -10 -16 -10 -8 0 -12 5 -9 10 3 6 10 10
16 10 5 0 9 -4 9 -10z m-91 -21 c-7 -4 -17 -5 -22 -2 -5 3 -3 9 4 14 7 4 17 5
22 2 5 -3 3 -9 -4 -14z"/>
<path d="M1530 2080 c0 -5 7 -10 16 -10 8 0 12 5 9 10 -3 6 -10 10 -16 10 -5
0 -9 -4 -9 -10z"/>
<path d="M1640 1940 c0 -5 5 -10 11 -10 5 0 7 5 4 10 -3 6 -8 10 -11 10 -2 0
-4 -4 -4 -10z"/>
<path d="M1790 1910 c0 -5 5 -10 10 -10 6 0 10 5 10 10 0 6 -4 10 -10 10 -5 0
-10 -4 -10 -10z"/>
<path d="M867 1774 c6 -17 -18 -19 -35 -2 -10 10 -15 10 -22 -2 -8 -13 -13
-13 -31 -2 -15 10 -25 10 -32 3 -7 -7 -16 -7 -29 0 -12 7 -18 6 -18 -1 0 -8
-11 -9 -30 -5 -19 4 -30 3 -30 -4 0 -6 -8 -11 -18 -11 -10 0 -24 -6 -30 -12
-10 -10 -17 -10 -32 0 -14 9 -21 9 -26 0 -4 -7 -2 -14 4 -16 7 -2 12 -12 12
-21 0 -12 -7 -17 -22 -16 -13 1 -29 -3 -37 -9 -11 -8 -13 -8 -7 2 4 6 3 12 -3
12 -15 0 -23 -18 -11 -25 14 -9 13 -23 -2 -22 -46 1 -56 -3 -50 -25 4 -16 2
-19 -9 -14 -8 4 -5 0 5 -8 25 -20 62 -21 70 -1 3 8 13 15 22 15 9 0 28 7 42
15 15 8 61 26 102 40 65 21 88 24 180 20 108 -4 160 -17 160 -42 0 -7 7 -13
15 -13 11 0 14 -7 10 -27 -4 -22 -3 -23 3 -8 8 18 10 18 27 -8 17 -27 17 -28
-1 -49 -14 -15 -15 -20 -4 -16 25 8 38 -21 29 -61 -13 -53 -11 -109 4 -114 7
-2 1 -10 -15 -17 -15 -7 -25 -17 -22 -22 3 -4 10 -6 15 -3 5 4 9 1 9 -4 0 -6
5 -11 11 -11 5 0 8 4 5 9 -3 5 2 15 11 22 15 12 16 12 10 -3 -3 -9 -1 -18 5
-20 16 -6 -27 -79 -54 -92 -15 -8 -23 -22 -25 -44 -2 -18 2 -32 8 -32 23 0 79
33 79 47 0 8 -5 11 -12 8 -7 -4 -5 0 4 8 13 10 14 17 6 25 -8 8 -8 15 -1 24
14 17 21 50 28 128 4 36 8 71 11 78 2 7 -1 21 -8 31 -7 12 -8 23 0 36 8 15 4
27 -14 57 -13 21 -24 47 -24 59 0 20 -21 49 -36 49 -4 0 -17 8 -28 18 -12 10
-41 25 -65 32 -25 8 -59 24 -77 37 -22 14 -31 17 -27 7z m205 -599 c0 -5 -5
-11 -11 -13 -6 -2 -11 4 -11 13 0 9 5 15 11 13 6 -2 11 -8 11 -13z"/>
<path d="M1885 1760 c3 -5 8 -10 11 -10 2 0 4 5 4 10 0 6 -5 10 -11 10 -5 0
-7 -4 -4 -10z"/>
<path d="M1718 1733 c-13 -12 -20 -14 -31 -5 -10 9 -18 8 -33 -2 -12 -10 -23
-11 -30 -5 -8 7 -19 1 -33 -20 -15 -20 -32 -31 -53 -33 -26 -2 -37 -11 -55
-43 -20 -35 -23 -37 -23 -16 0 33 -10 21 -20 -24 -8 -35 -7 -37 13 -32 40 9
91 29 144 55 57 28 173 40 173 18 0 -8 13 -10 36 -8 21 3 39 0 43 -7 4 -6 18
-13 30 -16 41 -8 61 -16 61 -26 0 -5 -4 -9 -10 -9 -20 0 -9 -21 16 -32 23 -11
29 -10 46 12 12 15 15 26 9 28 -19 6 -1 22 25 22 13 0 24 5 24 11 0 7 -14 8
-39 4 -46 -8 -61 7 -35 36 17 19 17 20 -1 13 -14 -6 -17 -4 -13 7 3 8 0 23 -8
34 -12 17 -15 17 -31 3 -32 -27 -50 -34 -30 -11 21 24 22 34 3 27 -7 -3 -16 2
-20 12 -6 16 -8 16 -25 0 -13 -12 -21 -14 -26 -6 -4 6 -13 9 -20 6 -8 -3 -16
0 -18 7 -3 9 -8 9 -20 -1 -13 -11 -17 -11 -24 2 -8 14 -10 14 -25 -1z m-33
-33 c-3 -5 -11 -10 -16 -10 -6 0 -7 5 -4 10 3 6 11 10 16 10 6 0 7 -4 4 -10z"/>
<path d="M643 1562 c-41 -17 -97 -61 -88 -70 2 -3 31 9 62 26 54 28 96 41 151
45 12 1 22 5 22 9 0 14 -104 7 -147 -10z"/>
<path d="M180 1560 c0 -5 5 -10 10 -10 6 0 10 5 10 10 0 6 -4 10 -10 10 -5 0
-10 -4 -10 -10z"/>
<path d="M450 1560 c-13 -8 -13 -10 2 -10 9 0 20 5 23 10 8 13 -5 13 -25 0z"/>
<path d="M1622 1542 c-30 -9 -51 -20 -47 -24 4 -4 17 -3 30 2 37 14 146 5 190
-16 22 -10 59 -31 83 -47 24 -16 46 -26 49 -23 10 10 15 86 6 86 -4 0 -14 -4
-22 -9 -9 -6 -22 -4 -35 4 -27 18 -132 45 -171 44 -16 0 -54 -8 -83 -17z"/>
<path d="M417 1536 c-3 -8 1 -17 9 -20 18 -7 44 3 44 17 0 7 -4 7 -12 -1 -14
-14 -32 -16 -23 -3 3 5 1 12 -4 15 -5 3 -11 0 -14 -8z"/>
<path d="M655 1520 c-33 -16 -88 -48 -123 -71 -36 -24 -79 -43 -102 -46 -39
-5 -40 -7 -27 -27 8 -11 18 -19 22 -18 9 5 65 -49 65 -62 0 -13 46 -49 65 -52
8 -1 29 -13 47 -26 18 -14 49 -25 68 -26 l35 -2 -52 28 c-29 15 -69 42 -89 60
-20 17 -39 32 -43 32 -4 0 -7 8 -8 18 -1 9 -4 27 -8 39 -5 17 -3 24 11 30 11
3 21 9 24 12 3 4 24 19 48 34 37 24 42 25 43 10 1 -10 2 -22 4 -28 1 -5 3 -17
3 -27 2 -15 23 -39 81 -88 22 -18 26 -19 41 -5 9 8 22 15 28 15 21 0 71 51 77
80 8 35 15 37 38 9 12 -13 24 -18 35 -14 38 16 50 16 66 0 9 -9 14 -21 11 -26
-4 -5 -2 -9 4 -9 18 0 23 21 11 49 -10 25 -16 28 -46 24 -30 -4 -41 1 -85 41
-28 25 -68 50 -88 56 -81 21 -95 21 -156 -10z m115 -50 c0 -5 -4 -10 -10 -10
-5 0 -10 5 -10 10 0 6 5 10 10 10 6 0 10 -4 10 -10z"/>
<path d="M350 1530 c-8 -5 -12 -12 -9 -15 4 -3 12 1 19 10 14 17 11 19 -10 5z"/>
<path d="M250 1520 c-13 -8 -12 -10 3 -10 9 0 17 5 17 10 0 12 -1 12 -20 0z"/>
<path d="M880 1520 c0 -6 7 -13 15 -17 24 -9 27 1 5 15 -13 8 -20 8 -20 2z"/>
<path d="M460 1500 c-13 -8 -12 -10 3 -10 9 0 17 5 17 10 0 12 -1 12 -20 0z"/>
<path d="M492 1485 c-7 -14 -19 -28 -27 -31 -22 -9 -18 -24 4 -19 39 7 61 26
61 50 0 33 -24 32 -38 0z"/>
<path d="M1627 1501 c-15 -3 -49 -25 -76 -48 -27 -23 -60 -45 -74 -48 -43 -11
-43 -39 0 -92 52 -66 83 -92 118 -102 53 -15 64 9 13 29 -49 20 -78 50 -78 82
0 20 5 28 18 28 14 1 13 3 -5 13 l-23 13 31 38 c22 26 34 34 39 25 5 -7 6 -18
3 -25 -14 -38 67 -117 110 -107 72 16 85 24 101 64 l16 40 35 -27 c42 -32 43
-39 8 -58 -16 -8 -23 -15 -18 -15 6 0 21 6 35 14 29 17 59 19 80 5 12 -8 10
-14 -13 -38 -15 -15 -27 -32 -27 -36 0 -18 99 66 100 85 0 3 -24 15 -54 28
-30 12 -92 49 -138 82 -87 62 -117 69 -201 50z m108 -40 c7 -12 -12 -24 -25
-16 -11 7 -4 25 10 25 5 0 11 -4 15 -9z"/>
<path d="M275 1450 c-3 -5 -1 -10 4 -10 6 0 11 5 11 10 0 6 -2 10 -4 10 -3 0
-8 -4 -11 -10z"/>
<path d="M175 1440 c3 -5 8 -10 11 -10 2 0 4 5 4 10 0 6 -5 10 -11 10 -5 0 -7
-4 -4 -10z"/>
<path d="M220 1379 c0 -5 5 -7 10 -4 6 3 10 8 10 11 0 2 -4 4 -10 4 -5 0 -10
-5 -10 -11z"/>
<path d="M905 1350 c-3 -5 -1 -10 4 -10 6 0 11 5 11 10 0 6 -2 10 -4 10 -3 0
-8 -4 -11 -10z"/>
<path d="M1840 1220 c-9 -6 -10 -10 -3 -10 6 0 15 5 18 10 8 12 4 12 -15 0z"/>
<path d="M1770 1199 c0 -5 5 -7 10 -4 6 3 10 8 10 11 0 2 -4 4 -10 4 -5 0 -10
-5 -10 -11z"/>
<path d="M1070 1121 c-8 -6 -18 -7 -22 -5 -4 3 -8 0 -8 -5 0 -6 4 -11 9 -11 5
0 16 -3 24 -6 10 -3 20 3 27 15 12 23 -2 29 -30 12z"/>
<path d="M905 1020 c-8 -16 -13 -42 -10 -57 13 -77 15 -80 56 -92 36 -11 44
-10 75 8 47 28 65 26 96 -6 24 -25 26 -32 18 -73 -7 -37 0 -80 14 -80 1 0 3
25 4 56 0 31 5 61 10 66 13 13 39 0 45 -24 3 -11 10 -17 16 -14 6 4 8 13 5 21
-3 7 4 24 16 37 57 63 49 59 84 34 37 -28 97 -27 136 3 30 23 32 75 5 117 -23
35 -39 18 -22 -25 11 -31 10 -34 -18 -58 l-29 -26 -14 33 c-13 31 -15 32 -58
27 -24 -2 -63 -17 -85 -31 -56 -38 -93 -41 -121 -10 -33 36 -62 45 -98 33 -22
-8 -30 -17 -30 -35 0 -31 -11 -30 -49 1 -24 21 -29 32 -26 57 2 17 9 36 14 41
15 15 14 27 -4 27 -8 0 -21 -13 -30 -30z"/>
<path d="M2116 954 c-4 -9 -4 -19 -1 -22 2 -3 7 3 11 12 4 9 4 19 1 22 -2 3
-7 -3 -11 -12z"/>
<path d="M200 950 c0 -5 5 -10 11 -10 5 0 7 5 4 10 -3 6 -8 10 -11 10 -2 0 -4
-4 -4 -10z"/>
<path d="M2057 903 c-4 -3 -7 -13 -7 -22 1 -13 3 -13 11 2 11 19 8 33 -4 20z"/>
<path d="M862 845 c-14 -29 -20 -51 -14 -57 12 -12 44 56 40 84 -2 16 -8 10
-26 -27z"/>
<path d="M1571 814 c0 -11 3 -14 6 -6 3 7 2 16 -1 19 -3 4 -6 -2 -5 -13z"/>
<path d="M2117 817 c-11 -29 -9 -43 4 -30 6 6 9 19 7 29 -3 18 -4 18 -11 1z"/>
<path d="M2012 765 c-6 -14 -7 -25 -2 -25 9 0 25 39 18 46 -3 2 -10 -7 -16
-21z"/>
<path d="M1217 763 c-4 -3 -7 -13 -7 -22 1 -13 3 -13 11 2 11 19 8 33 -4 20z"/>
<path d="M1805 760 c-3 -5 -1 -10 4 -10 6 0 11 5 11 10 0 6 -2 10 -4 10 -3 0
-8 -4 -11 -10z"/>
<path d="M1610 749 c0 -5 5 -7 10 -4 6 3 10 8 10 11 0 2 -4 4 -10 4 -5 0 -10
-5 -10 -11z"/>
<path d="M1650 721 c-11 -16 -17 -32 -12 -35 5 -3 16 10 25 29 20 43 15 45
-13 6z"/>
<path d="M1727 733 c-4 -3 -7 -11 -7 -17 0 -6 5 -5 12 2 6 6 9 14 7 17 -3 3
-9 2 -12 -2z"/>
<path d="M2074 714 c-4 -10 -9 -22 -11 -26 -2 -5 0 -8 6 -8 11 0 26 39 17 47
-3 3 -9 -3 -12 -13z"/>
<path d="M1755 700 c-3 -5 -2 -10 4 -10 5 0 13 5 16 10 3 6 2 10 -4 10 -5 0
-13 -4 -16 -10z"/>
<path d="M1995 690 c3 -5 8 -10 11 -10 2 0 4 5 4 10 0 6 -5 10 -11 10 -5 0 -7
-4 -4 -10z"/>
<path d="M1029 665 c-15 -8 -29 -21 -32 -28 -8 -22 -57 -30 -76 -13 -23 21
-101 10 -101 -13 0 -9 -5 -22 -11 -28 -7 -7 -9 -19 -6 -28 7 -16 9 -15 65 14
13 6 28 8 34 5 20 -12 85 -4 130 16 41 18 42 18 82 -2 43 -22 62 -20 143 13
28 11 40 10 90 -5 32 -10 78 -20 103 -21 31 -1 46 -6 48 -16 3 -16 55 -39 90
-39 31 0 36 17 13 42 -12 12 -21 26 -21 30 0 5 -4 7 -9 3 -5 -3 -16 3 -23 13
-19 28 -50 34 -90 18 -33 -14 -37 -13 -96 20 -77 42 -97 42 -138 3 l-32 -31
-39 26 c-49 33 -91 40 -124 21z"/>
<path d="M240 660 c0 -5 5 -10 10 -10 6 0 10 5 10 10 0 6 -4 10 -10 10 -5 0
-10 -4 -10 -10z"/>
<path d="M1597 663 c-4 -3 -7 -13 -7 -22 1 -13 3 -13 11 2 11 19 8 33 -4 20z"/>
<path d="M2005 649 c-4 -6 -5 -12 -2 -15 2 -3 7 2 10 11 7 17 1 20 -8 4z"/>
<path d="M2080 649 c0 -5 5 -7 10 -4 6 3 10 8 10 11 0 2 -4 4 -10 4 -5 0 -10
-5 -10 -11z"/>
<path d="M210 630 c6 -11 16 -20 22 -20 6 0 3 9 -7 20 -10 11 -20 20 -22 20
-2 0 1 -9 7 -20z"/>
<path d="M1780 629 c0 -5 5 -7 10 -4 6 3 10 8 10 11 0 2 -4 4 -10 4 -5 0 -10
-5 -10 -11z"/>
<path d="M755 620 c-3 -5 -1 -10 4 -10 6 0 11 5 11 10 0 6 -2 10 -4 10 -3 0
-8 -4 -11 -10z"/>
<path d="M1625 610 c-3 -5 -1 -10 4 -10 6 0 11 5 11 10 0 6 -2 10 -4 10 -3 0
-8 -4 -11 -10z"/>
<path d="M280 591 c0 -5 5 -13 10 -16 6 -3 10 -2 10 4 0 5 -4 13 -10 16 -5 3
-10 2 -10 -4z"/>
<path d="M1991 559 c0 -9 -10 -24 -22 -35 -20 -18 -20 -18 -14 9 4 15 5 27 1
27 -9 0 -36 -57 -29 -64 25 -24 80 24 70 61 -4 14 -5 15 -6 2z"/>
<path d="M750 530 c0 -5 5 -10 11 -10 5 0 7 5 4 10 -3 6 -8 10 -11 10 -2 0 -4
-4 -4 -10z"/>
<path d="M1044 498 c-10 -16 21 -35 67 -43 53 -9 56 -19 13 -44 -50 -30 -35
-43 39 -36 34 4 81 2 105 -3 33 -8 42 -7 42 4 0 16 -44 41 -85 48 -56 10 -48
22 20 31 47 7 75 19 75 34 0 4 -48 8 -107 10 -60 1 -120 4 -135 6 -16 2 -31
-2 -34 -7z"/>
<path d="M1790 495 c-10 -12 -10 -15 3 -15 8 0 17 7 21 15 3 8 2 15 -3 15 -5
0 -14 -7 -21 -15z"/>
<path d="M1851 494 c0 -11 3 -14 6 -6 3 7 2 16 -1 19 -3 4 -6 -2 -5 -13z"/>
<path d="M350 496 c0 -2 7 -7 16 -10 8 -3 12 -2 9 4 -6 10 -25 14 -25 6z"/>
<path d="M1636 475 c-3 -8 -1 -15 3 -15 5 0 11 7 15 15 3 8 1 15 -3 15 -5 0
-11 -7 -15 -15z"/>
<path d="M550 470 c0 -5 5 -10 11 -10 5 0 7 5 4 10 -3 6 -8 10 -11 10 -2 0 -4
-4 -4 -10z"/>
<path d="M1916 444 c-9 -24 -7 -28 9 -14 17 14 20 30 6 30 -5 0 -12 -7 -15
-16z"/>
<path d="M1810 430 c0 -5 5 -10 10 -10 6 0 10 5 10 10 0 6 -4 10 -10 10 -5 0
-10 -4 -10 -10z"/>
<path d="M1598 393 c-10 -2 -18 -11 -18 -19 0 -20 14 -17 35 6 18 20 16 22
-17 13z"/>
<path d="M695 380 c3 -5 8 -10 11 -10 2 0 4 5 4 10 0 6 -5 10 -11 10 -5 0 -7
-4 -4 -10z"/>
<path d="M1770 360 c0 -5 5 -10 11 -10 5 0 7 5 4 10 -3 6 -8 10 -11 10 -2 0
-4 -4 -4 -10z"/>
<path d="M1837 363 c-4 -3 -7 -11 -7 -17 0 -6 5 -5 12 2 6 6 9 14 7 17 -3 3
-9 2 -12 -2z"/>
<path d="M1675 330 c-3 -5 -1 -10 4 -10 6 0 11 5 11 10 0 6 -2 10 -4 10 -3 0
-8 -4 -11 -10z"/>
<path d="M714 315 c11 -8 22 -12 25 -9 6 6 -19 24 -34 24 -5 -1 -1 -7 9 -15z"/>
<path d="M1703 311 c-16 -12 -15 -13 10 -7 20 5 27 3 27 -9 0 -8 4 -15 8 -15
12 0 32 22 32 36 0 15 -55 12 -77 -5z"/>
<path d="M670 305 c0 -8 7 -15 16 -15 14 0 14 3 4 15 -7 8 -14 15 -16 15 -2 0
-4 -7 -4 -15z"/>
<path d="M565 290 c4 -6 11 -8 16 -5 14 9 11 15 -7 15 -8 0 -12 -5 -9 -10z"/>
<path d="M1603 293 c-7 -3 -13 -12 -13 -21 0 -15 2 -15 17 1 18 18 16 27 -4
20z"/>
<path d="M795 250 c3 -5 8 -10 11 -10 2 0 4 5 4 10 0 6 -5 10 -11 10 -5 0 -7
-4 -4 -10z"/>
<path d="M590 231 c0 -6 5 -13 10 -16 6 -3 10 1 10 9 0 9 -4 16 -10 16 -5 0
-10 -4 -10 -9z"/>
<path d="M845 220 c3 -5 10 -10 16 -10 5 0 9 5 9 10 0 6 -7 10 -16 10 -8 0
-12 -4 -9 -10z"/>
<path d="M785 130 c3 -5 12 -7 20 -3 21 7 19 13 -6 13 -11 0 -18 -4 -14 -10z"/>
</g>
</svg>
